<mxfile host="Electron" modified="2024-04-08T14:54:11.432Z" agent="Mozilla/5.0 (Windows NT 10.0; Win64; x64) AppleWebKit/537.36 (KHTML, like Gecko) draw.io/24.1.0 Chrome/120.0.6099.109 Electron/28.1.0 Safari/537.36" etag="JseV33jrK_-Vqgvt3Hpr" version="24.1.0" type="device">
  <diagram name="Page-1" id="476dN6jO05uj5O6TF7Jy">
    <mxGraphModel dx="1290" dy="1790" grid="1" gridSize="10" guides="1" tooltips="1" connect="1" arrows="1" fold="1" page="1" pageScale="1" pageWidth="827" pageHeight="1169" math="0" shadow="0">
      <root>
        <mxCell id="0" />
        <mxCell id="1" parent="0" />
        <mxCell id="oz5YSqMok2oPjh5MbtJ_-38" style="edgeStyle=orthogonalEdgeStyle;rounded=0;orthogonalLoop=1;jettySize=auto;html=1;entryX=0;entryY=0.5;entryDx=0;entryDy=0;" edge="1" parent="1" source="oz5YSqMok2oPjh5MbtJ_-1" target="oz5YSqMok2oPjh5MbtJ_-6">
          <mxGeometry relative="1" as="geometry" />
        </mxCell>
        <mxCell id="oz5YSqMok2oPjh5MbtJ_-1" value="Etalon" style="swimlane;fontStyle=1;align=center;verticalAlign=top;childLayout=stackLayout;horizontal=1;startSize=26;horizontalStack=0;resizeParent=1;resizeParentMax=0;resizeLast=0;collapsible=1;marginBottom=0;whiteSpace=wrap;html=1;" vertex="1" parent="1">
          <mxGeometry x="30" y="420" width="160" height="86" as="geometry" />
        </mxCell>
        <mxCell id="oz5YSqMok2oPjh5MbtJ_-2" value="+ field: type" style="text;strokeColor=none;fillColor=none;align=left;verticalAlign=top;spacingLeft=4;spacingRight=4;overflow=hidden;rotatable=0;points=[[0,0.5],[1,0.5]];portConstraint=eastwest;whiteSpace=wrap;html=1;" vertex="1" parent="oz5YSqMok2oPjh5MbtJ_-1">
          <mxGeometry y="26" width="160" height="26" as="geometry" />
        </mxCell>
        <mxCell id="oz5YSqMok2oPjh5MbtJ_-3" value="" style="line;strokeWidth=1;fillColor=none;align=left;verticalAlign=middle;spacingTop=-1;spacingLeft=3;spacingRight=3;rotatable=0;labelPosition=right;points=[];portConstraint=eastwest;strokeColor=inherit;" vertex="1" parent="oz5YSqMok2oPjh5MbtJ_-1">
          <mxGeometry y="52" width="160" height="8" as="geometry" />
        </mxCell>
        <mxCell id="oz5YSqMok2oPjh5MbtJ_-4" value="+ method(type): type" style="text;strokeColor=none;fillColor=none;align=left;verticalAlign=top;spacingLeft=4;spacingRight=4;overflow=hidden;rotatable=0;points=[[0,0.5],[1,0.5]];portConstraint=eastwest;whiteSpace=wrap;html=1;" vertex="1" parent="oz5YSqMok2oPjh5MbtJ_-1">
          <mxGeometry y="60" width="160" height="26" as="geometry" />
        </mxCell>
        <mxCell id="oz5YSqMok2oPjh5MbtJ_-5" value="Cheval" style="swimlane;fontStyle=1;align=center;verticalAlign=top;childLayout=stackLayout;horizontal=1;startSize=26;horizontalStack=0;resizeParent=1;resizeParentMax=0;resizeLast=0;collapsible=1;marginBottom=0;whiteSpace=wrap;html=1;" vertex="1" parent="1">
          <mxGeometry x="310" y="90" width="160" height="86" as="geometry" />
        </mxCell>
        <mxCell id="oz5YSqMok2oPjh5MbtJ_-6" value="attribut" style="text;strokeColor=none;fillColor=none;align=left;verticalAlign=top;spacingLeft=4;spacingRight=4;overflow=hidden;rotatable=0;points=[[0,0.5],[1,0.5]];portConstraint=eastwest;whiteSpace=wrap;html=1;" vertex="1" parent="oz5YSqMok2oPjh5MbtJ_-5">
          <mxGeometry y="26" width="160" height="26" as="geometry" />
        </mxCell>
        <mxCell id="oz5YSqMok2oPjh5MbtJ_-7" value="" style="line;strokeWidth=1;fillColor=none;align=left;verticalAlign=middle;spacingTop=-1;spacingLeft=3;spacingRight=3;rotatable=0;labelPosition=right;points=[];portConstraint=eastwest;strokeColor=inherit;" vertex="1" parent="oz5YSqMok2oPjh5MbtJ_-5">
          <mxGeometry y="52" width="160" height="8" as="geometry" />
        </mxCell>
        <mxCell id="oz5YSqMok2oPjh5MbtJ_-8" value="méthode" style="text;strokeColor=none;fillColor=none;align=left;verticalAlign=top;spacingLeft=4;spacingRight=4;overflow=hidden;rotatable=0;points=[[0,0.5],[1,0.5]];portConstraint=eastwest;whiteSpace=wrap;html=1;" vertex="1" parent="oz5YSqMok2oPjh5MbtJ_-5">
          <mxGeometry y="60" width="160" height="26" as="geometry" />
        </mxCell>
        <mxCell id="oz5YSqMok2oPjh5MbtJ_-9" value="Femelle" style="swimlane;fontStyle=1;align=center;verticalAlign=top;childLayout=stackLayout;horizontal=1;startSize=26;horizontalStack=0;resizeParent=1;resizeParentMax=0;resizeLast=0;collapsible=1;marginBottom=0;whiteSpace=wrap;html=1;" vertex="1" parent="1">
          <mxGeometry x="480" y="250" width="160" height="86" as="geometry" />
        </mxCell>
        <mxCell id="oz5YSqMok2oPjh5MbtJ_-10" value="attribut" style="text;strokeColor=none;fillColor=none;align=left;verticalAlign=top;spacingLeft=4;spacingRight=4;overflow=hidden;rotatable=0;points=[[0,0.5],[1,0.5]];portConstraint=eastwest;whiteSpace=wrap;html=1;" vertex="1" parent="oz5YSqMok2oPjh5MbtJ_-9">
          <mxGeometry y="26" width="160" height="26" as="geometry" />
        </mxCell>
        <mxCell id="oz5YSqMok2oPjh5MbtJ_-11" value="" style="line;strokeWidth=1;fillColor=none;align=left;verticalAlign=middle;spacingTop=-1;spacingLeft=3;spacingRight=3;rotatable=0;labelPosition=right;points=[];portConstraint=eastwest;strokeColor=inherit;" vertex="1" parent="oz5YSqMok2oPjh5MbtJ_-9">
          <mxGeometry y="52" width="160" height="8" as="geometry" />
        </mxCell>
        <mxCell id="oz5YSqMok2oPjh5MbtJ_-12" value="méthode" style="text;strokeColor=none;fillColor=none;align=left;verticalAlign=top;spacingLeft=4;spacingRight=4;overflow=hidden;rotatable=0;points=[[0,0.5],[1,0.5]];portConstraint=eastwest;whiteSpace=wrap;html=1;" vertex="1" parent="oz5YSqMok2oPjh5MbtJ_-9">
          <mxGeometry y="60" width="160" height="26" as="geometry" />
        </mxCell>
        <mxCell id="oz5YSqMok2oPjh5MbtJ_-13" value="Male" style="swimlane;fontStyle=1;align=center;verticalAlign=top;childLayout=stackLayout;horizontal=1;startSize=26;horizontalStack=0;resizeParent=1;resizeParentMax=0;resizeLast=0;collapsible=1;marginBottom=0;whiteSpace=wrap;html=1;" vertex="1" parent="1">
          <mxGeometry x="140" y="260" width="160" height="86" as="geometry" />
        </mxCell>
        <mxCell id="oz5YSqMok2oPjh5MbtJ_-14" value="attribut" style="text;strokeColor=none;fillColor=none;align=left;verticalAlign=top;spacingLeft=4;spacingRight=4;overflow=hidden;rotatable=0;points=[[0,0.5],[1,0.5]];portConstraint=eastwest;whiteSpace=wrap;html=1;" vertex="1" parent="oz5YSqMok2oPjh5MbtJ_-13">
          <mxGeometry y="26" width="160" height="26" as="geometry" />
        </mxCell>
        <mxCell id="oz5YSqMok2oPjh5MbtJ_-15" value="" style="line;strokeWidth=1;fillColor=none;align=left;verticalAlign=middle;spacingTop=-1;spacingLeft=3;spacingRight=3;rotatable=0;labelPosition=right;points=[];portConstraint=eastwest;strokeColor=inherit;" vertex="1" parent="oz5YSqMok2oPjh5MbtJ_-13">
          <mxGeometry y="52" width="160" height="8" as="geometry" />
        </mxCell>
        <mxCell id="oz5YSqMok2oPjh5MbtJ_-16" value="méthode" style="text;strokeColor=none;fillColor=none;align=left;verticalAlign=top;spacingLeft=4;spacingRight=4;overflow=hidden;rotatable=0;points=[[0,0.5],[1,0.5]];portConstraint=eastwest;whiteSpace=wrap;html=1;" vertex="1" parent="oz5YSqMok2oPjh5MbtJ_-13">
          <mxGeometry y="60" width="160" height="26" as="geometry" />
        </mxCell>
        <mxCell id="oz5YSqMok2oPjh5MbtJ_-17" value="Poulain" style="swimlane;fontStyle=1;align=center;verticalAlign=top;childLayout=stackLayout;horizontal=1;startSize=26;horizontalStack=0;resizeParent=1;resizeParentMax=0;resizeLast=0;collapsible=1;marginBottom=0;whiteSpace=wrap;html=1;" vertex="1" parent="1">
          <mxGeometry x="230" y="420" width="160" height="86" as="geometry" />
        </mxCell>
        <mxCell id="oz5YSqMok2oPjh5MbtJ_-18" value="attribut" style="text;strokeColor=none;fillColor=none;align=left;verticalAlign=top;spacingLeft=4;spacingRight=4;overflow=hidden;rotatable=0;points=[[0,0.5],[1,0.5]];portConstraint=eastwest;whiteSpace=wrap;html=1;" vertex="1" parent="oz5YSqMok2oPjh5MbtJ_-17">
          <mxGeometry y="26" width="160" height="26" as="geometry" />
        </mxCell>
        <mxCell id="oz5YSqMok2oPjh5MbtJ_-19" value="" style="line;strokeWidth=1;fillColor=none;align=left;verticalAlign=middle;spacingTop=-1;spacingLeft=3;spacingRight=3;rotatable=0;labelPosition=right;points=[];portConstraint=eastwest;strokeColor=inherit;" vertex="1" parent="oz5YSqMok2oPjh5MbtJ_-17">
          <mxGeometry y="52" width="160" height="8" as="geometry" />
        </mxCell>
        <mxCell id="oz5YSqMok2oPjh5MbtJ_-20" value="méthode" style="text;strokeColor=none;fillColor=none;align=left;verticalAlign=top;spacingLeft=4;spacingRight=4;overflow=hidden;rotatable=0;points=[[0,0.5],[1,0.5]];portConstraint=eastwest;whiteSpace=wrap;html=1;" vertex="1" parent="oz5YSqMok2oPjh5MbtJ_-17">
          <mxGeometry y="60" width="160" height="26" as="geometry" />
        </mxCell>
        <mxCell id="oz5YSqMok2oPjh5MbtJ_-21" value="Pouliche" style="swimlane;fontStyle=1;align=center;verticalAlign=top;childLayout=stackLayout;horizontal=1;startSize=26;horizontalStack=0;resizeParent=1;resizeParentMax=0;resizeLast=0;collapsible=1;marginBottom=0;whiteSpace=wrap;html=1;" vertex="1" parent="1">
          <mxGeometry x="414" y="416" width="160" height="86" as="geometry" />
        </mxCell>
        <mxCell id="oz5YSqMok2oPjh5MbtJ_-22" value="attribut" style="text;strokeColor=none;fillColor=none;align=left;verticalAlign=top;spacingLeft=4;spacingRight=4;overflow=hidden;rotatable=0;points=[[0,0.5],[1,0.5]];portConstraint=eastwest;whiteSpace=wrap;html=1;" vertex="1" parent="oz5YSqMok2oPjh5MbtJ_-21">
          <mxGeometry y="26" width="160" height="26" as="geometry" />
        </mxCell>
        <mxCell id="oz5YSqMok2oPjh5MbtJ_-23" value="" style="line;strokeWidth=1;fillColor=none;align=left;verticalAlign=middle;spacingTop=-1;spacingLeft=3;spacingRight=3;rotatable=0;labelPosition=right;points=[];portConstraint=eastwest;strokeColor=inherit;" vertex="1" parent="oz5YSqMok2oPjh5MbtJ_-21">
          <mxGeometry y="52" width="160" height="8" as="geometry" />
        </mxCell>
        <mxCell id="oz5YSqMok2oPjh5MbtJ_-24" value="méthode" style="text;strokeColor=none;fillColor=none;align=left;verticalAlign=top;spacingLeft=4;spacingRight=4;overflow=hidden;rotatable=0;points=[[0,0.5],[1,0.5]];portConstraint=eastwest;whiteSpace=wrap;html=1;" vertex="1" parent="oz5YSqMok2oPjh5MbtJ_-21">
          <mxGeometry y="60" width="160" height="26" as="geometry" />
        </mxCell>
        <mxCell id="oz5YSqMok2oPjh5MbtJ_-39" style="edgeStyle=orthogonalEdgeStyle;rounded=0;orthogonalLoop=1;jettySize=auto;html=1;entryX=1;entryY=0.5;entryDx=0;entryDy=0;" edge="1" parent="1" source="oz5YSqMok2oPjh5MbtJ_-25" target="oz5YSqMok2oPjh5MbtJ_-6">
          <mxGeometry relative="1" as="geometry" />
        </mxCell>
        <mxCell id="oz5YSqMok2oPjh5MbtJ_-25" value="Jument" style="swimlane;fontStyle=1;align=center;verticalAlign=top;childLayout=stackLayout;horizontal=1;startSize=26;horizontalStack=0;resizeParent=1;resizeParentMax=0;resizeLast=0;collapsible=1;marginBottom=0;whiteSpace=wrap;html=1;" vertex="1" parent="1">
          <mxGeometry x="660" y="416" width="160" height="86" as="geometry" />
        </mxCell>
        <mxCell id="oz5YSqMok2oPjh5MbtJ_-26" value="attribut" style="text;strokeColor=none;fillColor=none;align=left;verticalAlign=top;spacingLeft=4;spacingRight=4;overflow=hidden;rotatable=0;points=[[0,0.5],[1,0.5]];portConstraint=eastwest;whiteSpace=wrap;html=1;" vertex="1" parent="oz5YSqMok2oPjh5MbtJ_-25">
          <mxGeometry y="26" width="160" height="26" as="geometry" />
        </mxCell>
        <mxCell id="oz5YSqMok2oPjh5MbtJ_-27" value="" style="line;strokeWidth=1;fillColor=none;align=left;verticalAlign=middle;spacingTop=-1;spacingLeft=3;spacingRight=3;rotatable=0;labelPosition=right;points=[];portConstraint=eastwest;strokeColor=inherit;" vertex="1" parent="oz5YSqMok2oPjh5MbtJ_-25">
          <mxGeometry y="52" width="160" height="8" as="geometry" />
        </mxCell>
        <mxCell id="oz5YSqMok2oPjh5MbtJ_-28" value="méthode" style="text;strokeColor=none;fillColor=none;align=left;verticalAlign=top;spacingLeft=4;spacingRight=4;overflow=hidden;rotatable=0;points=[[0,0.5],[1,0.5]];portConstraint=eastwest;whiteSpace=wrap;html=1;" vertex="1" parent="oz5YSqMok2oPjh5MbtJ_-25">
          <mxGeometry y="60" width="160" height="26" as="geometry" />
        </mxCell>
        <mxCell id="oz5YSqMok2oPjh5MbtJ_-29" value="{Complete}&lt;div&gt;{disjoint}&lt;/div&gt;" style="text;strokeColor=none;fillColor=none;align=left;verticalAlign=top;spacingLeft=4;spacingRight=4;overflow=hidden;rotatable=0;points=[[0,0.5],[1,0.5]];portConstraint=eastwest;whiteSpace=wrap;html=1;" vertex="1" parent="1">
          <mxGeometry x="339" y="250" width="102" height="40" as="geometry" />
        </mxCell>
        <mxCell id="oz5YSqMok2oPjh5MbtJ_-30" value="{Complete}&lt;div&gt;{disjoint}&lt;/div&gt;" style="text;strokeColor=none;fillColor=none;align=left;verticalAlign=top;spacingLeft=4;spacingRight=4;overflow=hidden;rotatable=0;points=[[0,0.5],[1,0.5]];portConstraint=eastwest;whiteSpace=wrap;html=1;" vertex="1" parent="1">
          <mxGeometry x="580" y="420" width="102" height="40" as="geometry" />
        </mxCell>
        <mxCell id="oz5YSqMok2oPjh5MbtJ_-31" value="{disjoint}&lt;div&gt;{incomplete}&lt;/div&gt;" style="text;strokeColor=none;fillColor=none;align=left;verticalAlign=top;spacingLeft=4;spacingRight=4;overflow=hidden;rotatable=0;points=[[0,0.5],[1,0.5]];portConstraint=eastwest;whiteSpace=wrap;html=1;" vertex="1" parent="1">
          <mxGeometry x="169" y="380" width="102" height="40" as="geometry" />
        </mxCell>
        <mxCell id="oz5YSqMok2oPjh5MbtJ_-32" style="edgeStyle=orthogonalEdgeStyle;rounded=0;orthogonalLoop=1;jettySize=auto;html=1;entryX=0.188;entryY=1.154;entryDx=0;entryDy=0;entryPerimeter=0;exitX=0.555;exitY=0;exitDx=0;exitDy=0;exitPerimeter=0;" edge="1" parent="1" source="oz5YSqMok2oPjh5MbtJ_-1">
          <mxGeometry relative="1" as="geometry">
            <mxPoint x="129.92000000000002" y="410" as="sourcePoint" />
            <mxPoint x="189.99999999999994" y="340.004" as="targetPoint" />
          </mxGeometry>
        </mxCell>
        <mxCell id="oz5YSqMok2oPjh5MbtJ_-33" style="edgeStyle=orthogonalEdgeStyle;rounded=0;orthogonalLoop=1;jettySize=auto;html=1;entryX=0.423;entryY=1.108;entryDx=0;entryDy=0;entryPerimeter=0;exitX=0.07;exitY=0.019;exitDx=0;exitDy=0;exitPerimeter=0;" edge="1" parent="1" source="oz5YSqMok2oPjh5MbtJ_-17">
          <mxGeometry relative="1" as="geometry">
            <mxPoint x="342.32" y="416" as="sourcePoint" />
            <mxPoint x="240.00000000000006" y="344.808" as="targetPoint" />
          </mxGeometry>
        </mxCell>
        <mxCell id="oz5YSqMok2oPjh5MbtJ_-34" style="edgeStyle=orthogonalEdgeStyle;rounded=0;orthogonalLoop=1;jettySize=auto;html=1;entryX=0.338;entryY=1.246;entryDx=0;entryDy=0;entryPerimeter=0;" edge="1" parent="1" source="oz5YSqMok2oPjh5MbtJ_-21" target="oz5YSqMok2oPjh5MbtJ_-12">
          <mxGeometry relative="1" as="geometry" />
        </mxCell>
        <mxCell id="oz5YSqMok2oPjh5MbtJ_-35" style="edgeStyle=orthogonalEdgeStyle;rounded=0;orthogonalLoop=1;jettySize=auto;html=1;entryX=0.808;entryY=1.123;entryDx=0;entryDy=0;entryPerimeter=0;exitX=0.25;exitY=0;exitDx=0;exitDy=0;" edge="1" parent="1" source="oz5YSqMok2oPjh5MbtJ_-25" target="oz5YSqMok2oPjh5MbtJ_-12">
          <mxGeometry relative="1" as="geometry" />
        </mxCell>
        <mxCell id="oz5YSqMok2oPjh5MbtJ_-36" style="edgeStyle=orthogonalEdgeStyle;rounded=0;orthogonalLoop=1;jettySize=auto;html=1;entryX=0.35;entryY=1.031;entryDx=0;entryDy=0;entryPerimeter=0;" edge="1" parent="1" source="oz5YSqMok2oPjh5MbtJ_-13" target="oz5YSqMok2oPjh5MbtJ_-8">
          <mxGeometry relative="1" as="geometry" />
        </mxCell>
        <mxCell id="oz5YSqMok2oPjh5MbtJ_-37" style="edgeStyle=orthogonalEdgeStyle;rounded=0;orthogonalLoop=1;jettySize=auto;html=1;entryX=0.48;entryY=1;entryDx=0;entryDy=0;entryPerimeter=0;" edge="1" parent="1" source="oz5YSqMok2oPjh5MbtJ_-9" target="oz5YSqMok2oPjh5MbtJ_-8">
          <mxGeometry relative="1" as="geometry" />
        </mxCell>
        <mxCell id="oz5YSqMok2oPjh5MbtJ_-40" value="1" style="text;align=center;fontStyle=1;verticalAlign=middle;spacingLeft=3;spacingRight=3;strokeColor=none;rotatable=0;points=[[0,0.5],[1,0.5]];portConstraint=eastwest;html=1;" vertex="1" parent="1">
          <mxGeometry x="60" y="394" width="80" height="26" as="geometry" />
        </mxCell>
        <mxCell id="oz5YSqMok2oPjh5MbtJ_-42" value="*" style="text;align=center;fontStyle=1;verticalAlign=middle;spacingLeft=3;spacingRight=3;strokeColor=none;rotatable=0;points=[[0,0.5],[1,0.5]];portConstraint=eastwest;html=1;" vertex="1" parent="1">
          <mxGeometry x="240" y="100" width="80" height="26" as="geometry" />
        </mxCell>
        <mxCell id="oz5YSqMok2oPjh5MbtJ_-43" value="1" style="text;align=center;fontStyle=1;verticalAlign=middle;spacingLeft=3;spacingRight=3;strokeColor=none;rotatable=0;points=[[0,0.5],[1,0.5]];portConstraint=eastwest;html=1;" vertex="1" parent="1">
          <mxGeometry x="710" y="394" width="80" height="26" as="geometry" />
        </mxCell>
        <mxCell id="oz5YSqMok2oPjh5MbtJ_-45" value="*" style="text;align=center;fontStyle=1;verticalAlign=middle;spacingLeft=3;spacingRight=3;strokeColor=none;rotatable=0;points=[[0,0.5],[1,0.5]];portConstraint=eastwest;html=1;" vertex="1" parent="1">
          <mxGeometry x="470" y="100" width="80" height="26" as="geometry" />
        </mxCell>
        <mxCell id="oz5YSqMok2oPjh5MbtJ_-46" value="Troupeau" style="swimlane;fontStyle=1;align=center;verticalAlign=top;childLayout=stackLayout;horizontal=1;startSize=26;horizontalStack=0;resizeParent=1;resizeParentMax=0;resizeLast=0;collapsible=1;marginBottom=0;whiteSpace=wrap;html=1;" vertex="1" parent="1">
          <mxGeometry x="70" y="-10" width="160" height="86" as="geometry" />
        </mxCell>
        <mxCell id="oz5YSqMok2oPjh5MbtJ_-47" value="Attribut" style="text;strokeColor=none;fillColor=none;align=left;verticalAlign=top;spacingLeft=4;spacingRight=4;overflow=hidden;rotatable=0;points=[[0,0.5],[1,0.5]];portConstraint=eastwest;whiteSpace=wrap;html=1;" vertex="1" parent="oz5YSqMok2oPjh5MbtJ_-46">
          <mxGeometry y="26" width="160" height="26" as="geometry" />
        </mxCell>
        <mxCell id="oz5YSqMok2oPjh5MbtJ_-48" value="" style="line;strokeWidth=1;fillColor=none;align=left;verticalAlign=middle;spacingTop=-1;spacingLeft=3;spacingRight=3;rotatable=0;labelPosition=right;points=[];portConstraint=eastwest;strokeColor=inherit;" vertex="1" parent="oz5YSqMok2oPjh5MbtJ_-46">
          <mxGeometry y="52" width="160" height="8" as="geometry" />
        </mxCell>
        <mxCell id="oz5YSqMok2oPjh5MbtJ_-49" value="Méthode" style="text;strokeColor=none;fillColor=none;align=left;verticalAlign=top;spacingLeft=4;spacingRight=4;overflow=hidden;rotatable=0;points=[[0,0.5],[1,0.5]];portConstraint=eastwest;whiteSpace=wrap;html=1;" vertex="1" parent="oz5YSqMok2oPjh5MbtJ_-46">
          <mxGeometry y="60" width="160" height="26" as="geometry" />
        </mxCell>
        <mxCell id="oz5YSqMok2oPjh5MbtJ_-50" value="" style="endArrow=diamondThin;endFill=0;endSize=24;html=1;rounded=0;entryX=1;entryY=0.114;entryDx=0;entryDy=0;entryPerimeter=0;exitX=0.42;exitY=-0.035;exitDx=0;exitDy=0;exitPerimeter=0;" edge="1" parent="1" source="oz5YSqMok2oPjh5MbtJ_-5" target="oz5YSqMok2oPjh5MbtJ_-46">
          <mxGeometry width="160" relative="1" as="geometry">
            <mxPoint x="310" as="sourcePoint" />
            <mxPoint x="470" as="targetPoint" />
            <Array as="points">
              <mxPoint x="377" />
            </Array>
          </mxGeometry>
        </mxCell>
        <mxCell id="oz5YSqMok2oPjh5MbtJ_-51" value="2..*" style="text;align=center;fontStyle=1;verticalAlign=middle;spacingLeft=3;spacingRight=3;strokeColor=none;rotatable=0;points=[[0,0.5],[1,0.5]];portConstraint=eastwest;html=1;" vertex="1" parent="1">
          <mxGeometry x="350" y="64" width="80" height="26" as="geometry" />
        </mxCell>
      </root>
    </mxGraphModel>
  </diagram>
</mxfile>
